<?xml version="1.0" encoding="UTF-8"?>
<svg xmlns="http://www.w3.org/2000/svg" viewBox="0 0 900 675" role="img" aria-label="Video call participant f09">
  <defs>
    <linearGradient id="bg" x1="0" y1="0" x2="1" y2="1">
      <stop offset="0" stop-color="#edf5ff"/>
      <stop offset="1" stop-color="#8fb4e7"/>
    </linearGradient>
    <linearGradient id="shade" x1="0" y1="0" x2="0" y2="1">
      <stop offset="0" stop-color="#ffffff" stop-opacity=".5"/>
      <stop offset="1" stop-color="#000000" stop-opacity=".16"/>
    </linearGradient>
    <filter id="soft" x="-20%" y="-20%" width="140%" height="140%">
      <feDropShadow dx="0" dy="18" stdDeviation="16" flood-color="#111827" flood-opacity=".22"/>
    </filter>
    <filter id="grain">
      <feTurbulence type="fractalNoise" baseFrequency=".9" numOctaves="2" seed="8"/>
      <feColorMatrix type="saturate" values="0"/>
      <feComponentTransfer>
        <feFuncA type="table" tableValues="0 .08"/>
      </feComponentTransfer>
      <feBlend mode="soft-light" in2="SourceGraphic"/>
    </filter>
  </defs>
  <rect width="900" height="675" fill="url(#bg)"/>
  <g opacity=".28">
    <rect x="66" y="56" width="188" height="116" rx="8" fill="#ffffff" opacity=".22"/>
    <rect x="642" y="82" width="178" height="102" rx="8" fill="#ffffff" opacity=".14"/>
    <rect x="96" y="480" width="168" height="88" rx="8" fill="#ffffff" opacity=".13"/>
    <path d="M0 520 C156 484 241 556 370 520 C512 481 644 510 900 454 V675 H0Z" fill="#ffffff" opacity=".14"/>
  </g>
  <g filter="url(#soft)">
    <path d="M271 652 C287 539 344 492 450 492 C556 492 615 539 631 652Z" fill="#314171"/>
    <path d="M365 469 C370 514 532 514 536 469 L520 441 C501 462 399 462 380 441Z" fill="#dfb18d"/>
    <path d="M337 280 C332 191 386 133 453 133 C520 133 571 191 564 281 L548 318 C536 206 373 207 354 320Z" fill="#1f2028"/>
    
    <path d="M355 277 C365 174 534 174 545 277 C553 356 513 421 451 426 C385 419 346 352 355 277Z" fill="none" stroke="#39d9ff" stroke-width="6" opacity=".42" transform="translate(8 -2)"/>
    <path d="M355 277 C365 174 534 174 545 277 C553 356 513 421 451 426 C385 419 346 352 355 277Z" fill="none" stroke="#ff4f89" stroke-width="5" opacity=".35" transform="translate(-7 3)"/>
  
    <ellipse cx="333" cy="311" rx="25" ry="39" fill="#dfb18d" opacity=".96"/>
    <ellipse cx="580" cy="311" rx="18" ry="35" fill="#dfb18d" opacity=".96"/>
    <path d="M355 277 C365 174 534 174 545 277 C553 356 513 421 451 426 C385 419 346 352 355 277Z" fill="#dfb18d"/>
    <path d="M355 277 C365 174 534 174 545 277 C553 356 513 421 451 426 C385 419 346 352 355 277Z" fill="url(#shade)" opacity=".28"/>
    <path d="M352 273 C372 172 531 174 548 276 C531 242 505 223 478 220 C435 216 393 224 352 273Z" fill="#1f2028"/>
    <path d="M377 286 C394 276 415 276 432 287" fill="none" stroke="#1f2028" stroke-width="8" stroke-linecap="round" opacity=".72"/>
    <path d="M471 286 C488 276 510 277 526 288" fill="none" stroke="#1f2028" stroke-width="8" stroke-linecap="round" opacity=".72"/>
    <ellipse cx="405" cy="316" rx="8" ry="8" fill="#111827"/>
    <ellipse cx="500" cy="316" rx="8" ry="10" fill="#111827"/>
    <path d="M451 321 C446 348 441 358 452 366" fill="none" stroke="#9d624d" stroke-width="5" stroke-linecap="round" opacity=".45"/>
    <path d="M410 389 C431 407 475 408 496 389" fill="none" stroke="#7f463b" stroke-width="7" stroke-linecap="round"/>
    <path d="M362 263 C388 223 506 220 541 266" fill="none" stroke="#ffffff" stroke-width="4" opacity=".16"/>
    
    <g opacity=".20">
      <path d="M318 210 H590" stroke="#ffffff" stroke-width="2" stroke-dasharray="7 14"/>
      <path d="M329 380 H578" stroke="#ffffff" stroke-width="2" stroke-dasharray="5 18"/>
      <path d="M456 160 V439" stroke="#47d8ff" stroke-width="2" stroke-dasharray="6 13"/>
    </g>
    <rect x="361" y="286" width="54" height="8" fill="#48d8ff" opacity=".22"/>
    <rect x="493" y="330" width="42" height="7" fill="#ff5d94" opacity=".18"/>
  
  </g>
  <g opacity=".86">
    <rect x="28" y="28" width="194" height="50" rx="25" fill="#0f172a" opacity=".52"/>
    <circle cx="58" cy="53" r="10" fill="#f97373"/>
    <text x="78" y="59" font-family="Inter, Arial, sans-serif" font-size="18" fill="#ffffff" opacity=".92">Reconnecting</text>
  </g>
  <g opacity=".78">
    <rect x="718" y="30" width="154" height="46" rx="23" fill="#0f172a" opacity=".45"/>
    <text x="746" y="59" font-family="Inter, Arial, sans-serif" font-size="18" fill="#ffffff">720p</text>
    <circle cx="836" cy="53" r="8" fill="#ffffff" opacity=".45"/>
  </g>
  <rect width="900" height="675" fill="#000000" opacity=".06" filter="url(#grain)"/>
  <rect x="120" y="580" width="9" height="9" rx="1" fill="#47d8ff" opacity="0.15"/><rect x="138" y="593" width="6" height="6" rx="1" fill="#ffffff" opacity="0.09"/><rect x="428" y="602" width="4" height="4" rx="1" fill="#ffffff" opacity="0.14"/><rect x="871" y="199" width="4" height="4" rx="1" fill="#47d8ff" opacity="0.12"/><rect x="155" y="313" width="7" height="7" rx="1" fill="#ff5d94" opacity="0.06"/><rect x="74" y="337" width="9" height="9" rx="1" fill="#ffffff" opacity="0.07"/><rect x="496" y="497" width="5" height="5" rx="1" fill="#47d8ff" opacity="0.08"/><rect x="309" y="187" width="3" height="3" rx="1" fill="#ffffff" opacity="0.13"/><rect x="565" y="214" width="10" height="10" rx="1" fill="#ff5d94" opacity="0.17"/><rect x="43" y="483" width="9" height="9" rx="1" fill="#47d8ff" opacity="0.13"/><rect x="643" y="116" width="9" height="9" rx="1" fill="#ffffff" opacity="0.12"/><rect x="552" y="596" width="3" height="3" rx="1" fill="#ffffff" opacity="0.08"/><rect x="28" y="142" width="7" height="7" rx="1" fill="#47d8ff" opacity="0.12"/><rect x="741" y="348" width="5" height="5" rx="1" fill="#ffffff" opacity="0.10"/><rect x="579" y="358" width="6" height="6" rx="1" fill="#ffffff" opacity="0.12"/><rect x="515" y="541" width="8" height="8" rx="1" fill="#47d8ff" opacity="0.13"/><rect x="783" y="582" width="4" height="4" rx="1" fill="#ff5d94" opacity="0.10"/><rect x="555" y="204" width="3" height="3" rx="1" fill="#ffffff" opacity="0.09"/><rect x="426" y="528" width="6" height="6" rx="1" fill="#47d8ff" opacity="0.15"/><rect x="502" y="405" width="5" height="5" rx="1" fill="#ffffff" opacity="0.13"/><rect x="356" y="375" width="7" height="7" rx="1" fill="#ff5d94" opacity="0.17"/><rect x="268" y="535" width="10" height="10" rx="1" fill="#47d8ff" opacity="0.12"/><rect x="855" y="617" width="9" height="9" rx="1" fill="#ffffff" opacity="0.15"/><rect x="707" y="565" width="4" height="4" rx="1" fill="#ffffff" opacity="0.15"/><rect x="266" y="451" width="6" height="6" rx="1" fill="#47d8ff" opacity="0.17"/><rect x="636" y="466" width="4" height="4" rx="1" fill="#ffffff" opacity="0.11"/><rect x="448" y="229" width="9" height="9" rx="1" fill="#ffffff" opacity="0.09"/><rect x="770" y="580" width="10" height="10" rx="1" fill="#47d8ff" opacity="0.13"/><rect x="438" y="286" width="8" height="8" rx="1" fill="#ff5d94" opacity="0.06"/><rect x="756" y="342" width="4" height="4" rx="1" fill="#ffffff" opacity="0.14"/><rect x="169" y="391" width="3" height="3" rx="1" fill="#47d8ff" opacity="0.07"/><rect x="159" y="546" width="4" height="4" rx="1" fill="#ffffff" opacity="0.15"/><rect x="548" y="446" width="10" height="10" rx="1" fill="#ff5d94" opacity="0.14"/><rect x="826" y="120" width="5" height="5" rx="1" fill="#47d8ff" opacity="0.09"/>
  <g>
    <rect x="30" y="585" width="252" height="56" rx="10" fill="#111827" opacity=".76"/>
    <circle cx="61" cy="613" r="17" fill="#334155"/>
    <text x="61" y="620" text-anchor="middle" font-family="Inter, Arial, sans-serif" font-size="18" font-weight="700" fill="#ffffff">R</text>
    <text x="90" y="619" font-family="Inter, Arial, sans-serif" font-size="22" font-weight="700" fill="#ffffff">Rio</text>
  </g>
</svg>